<svg width="117" height="117" viewBox="0 0 117 117" fill="none" xmlns="http://www.w3.org/2000/svg">
<path d="M34.125 68.25L45.3034 57.0716C46.2176 56.1577 47.4573 55.6443 48.75 55.6443C50.0427 55.6443 51.2824 56.1577 52.1966 57.0716L59.9284 64.8034C60.8426 65.7173 62.0823 66.2307 63.375 66.2307C64.6677 66.2307 65.9074 65.7173 66.8216 64.8034L82.875 48.75M82.875 48.75V60.9375M82.875 48.75H70.6875" stroke="black" stroke-width="4" stroke-linecap="round" stroke-linejoin="round"/>
<path d="M107.25 58.5C107.25 81.4808 107.25 92.9711 100.108 100.108C92.976 107.25 81.4808 107.25 58.5 107.25C35.5192 107.25 24.0289 107.25 16.887 100.108C9.75 92.976 9.75 81.4808 9.75 58.5C9.75 35.5192 9.75 24.0289 16.887 16.887C24.0337 9.75 35.5192 9.75 58.5 9.75C81.4808 9.75 92.9711 9.75 100.108 16.887C104.856 21.6352 106.446 28.3091 106.982 39" stroke="black" stroke-width="4" stroke-linecap="round"/>
</svg>
