<?xml version="1.0" encoding="utf-8"?>
<!-- Generator: Adobe Illustrator 17.1.0, SVG Export Plug-In . SVG Version: 6.00 Build 0)  -->
<!DOCTYPE svg PUBLIC "-//W3C//DTD SVG 1.1//EN" "http://www.w3.org/Graphics/SVG/1.1/DTD/svg11.dtd">
<svg version="1.1" id="Layer_1" xmlns="http://www.w3.org/2000/svg" xmlns:xlink="http://www.w3.org/1999/xlink" x="0px" y="0px"
	 viewBox="0 0 196 66" enable-background="new 0 0 196 66" xml:space="preserve">
<g>
	<g>
		<path fill-rule="evenodd" clip-rule="evenodd" fill="#414141" d="M92.9,41c-8.3,0-9.4-6.1-9.4-12.1c0-10.2,11.8-11.8,15.7-6.3
			c2.4,3.3,2.7,7.2,1.8,11.6C100.2,37.8,96.8,41,92.9,41L92.9,41z M91.7,14.7C84.8,15.1,78,20,78,29.2v2c0,19.6,29,19.3,29-0.8
			c0-10.3-6.8-15.3-13.8-15.7H91.7z"/>
		<path fill-rule="evenodd" clip-rule="evenodd" fill="#414141" d="M175.6,39c0,4.3,3,6.4,6.2,6.7h1.8c0.7-0.1,1.5-0.2,2.2-0.5
			c1.3-0.4,1.1-0.8,2.4-1.1v1.2h4.7V24.9h-4.7v13.7c0,1.9-7.8,7.2-7.8-1.6V24.9h-4.7V39z"/>
		<path fill-rule="evenodd" clip-rule="evenodd" fill="#414141" d="M112.9,21.8v3.1h-3.1c0,4-0.4,3.5,3.1,3.5v16.8h4.7V28.4
			c4.5,0,3.9,0.6,3.9-3.5h-3.9c0-4.7,0.7-4.3,4.7-4.3v-3.5C119.6,17.1,112.9,16.2,112.9,21.8z"/>
		<path fill-rule="evenodd" clip-rule="evenodd" fill="#414141" d="M125.1,21.8v3.1h-3.1c0,4-0.4,3.5,3.1,3.5v16.8h4.7V28.4
			c4.5,0,3.9,0.6,3.9-3.5h-3.9c0-4.7,0.7-4.3,4.7-4.3v-3.5C131.8,17.1,125.1,16.2,125.1,21.8z"/>
		<path fill-rule="evenodd" clip-rule="evenodd" fill="#414141" d="M137.6,24.9h-2.7v3.5h2.7v13.7c0,2.6,2.2,3.5,4.6,3.5h0.6
			c1.1,0,2.1-0.2,3-0.4v-3.5c-4.4,0.1-3.5,2.5-3.5-13.3h3.1v-3.5h-3.1v-5.1h-4.7V24.9z"/>
		<path fill-rule="evenodd" clip-rule="evenodd" fill="#414141" d="M166.2,26.1v-1.2h-4.7v20.4h4.7V32c0-4.2,5-3.9,7.1-3.9
			c0-4,0.5-3.5-3.5-3.5C168.2,24.5,167.1,25.5,166.2,26.1z"/>
		<rect x="149.7" y="40.6" fill-rule="evenodd" clip-rule="evenodd" fill="#414141" width="5.1" height="4.7"/>
	</g>
	<path fill-rule="evenodd" clip-rule="evenodd" fill="#414141" d="M82,55.9c-1.5,0-2.6,1.2-2.6,3.2c0,1.9,1.1,3.1,2.6,3.1
		c1.3,0,2.7-1,2.7-3.2C84.6,57.1,83.6,55.9,82,55.9L82,55.9z M82,56.7c1.1,0,1.6,1.3,1.6,2.3c0,1.4-0.7,2.3-1.6,2.3
		c-0.9,0-1.6-1-1.6-2.3C80.4,57.9,80.9,56.7,82,56.7L82,56.7z M90.5,53.2v2.7c-1.5,0.1-2.7,1.2-2.7,3.2c0,1.9,1.1,3,2.7,3.1v2.3h0.9
		v-2.3C92.8,62,94,61,94,59c0-1.9-1.1-3-2.7-3.1v-2.7H90.5L90.5,53.2z M90.5,61.4c-1.1-0.1-1.7-1.1-1.7-2.4c0-1.2,0.6-2.2,1.7-2.4
		V61.4L90.5,61.4z M91.3,56.7c1.1,0.2,1.7,1.1,1.7,2.4c0,1.2-0.7,2.2-1.7,2.4V56.7L91.3,56.7z M97.6,56v6h1.1
		c0.6-1.1,1.2-2.2,1.7-3.1c0.3-0.6,0.5-1.1,0.9-1.9h0c0,1-0.1,1.5-0.1,2.5V62h0.9v-6H101l-1.7,3.1c-0.4,0.7-0.5,1.1-0.9,1.9l0,0
		c0-0.9,0.1-1.5,0.1-2.4V56H97.6L97.6,56z M109.7,61c-0.3,0.1-0.6,0.3-1.2,0.3c-1.1,0-1.9-0.9-1.9-2.2c0-1.3,0.7-2.3,1.9-2.3
		c0.5,0,0.9,0.1,1.1,0.3l0.2-0.8c-0.3-0.1-0.8-0.3-1.3-0.3c-1.7,0-2.9,1.3-2.9,3.2c0,1.8,1,3.1,2.7,3.1c0.7,0,1.3-0.2,1.5-0.3
		L109.7,61L109.7,61z M113.3,56v6h1v-2.7h2.5V62h1v-6h-1v2.4h-2.5V56H113.3L113.3,56z M125.5,62c-0.1-0.4-0.1-0.9-0.1-1.4v-2.2
		c0-1.2-0.4-2.5-2-2.5c-0.7,0-1.3,0.2-1.8,0.5l0.2,0.7c0.4-0.3,0.9-0.4,1.4-0.4c1.1,0,1.2,0.9,1.2,1.4v0.1c-2.1,0-3.2,0.8-3.2,2.2
		c0,0.9,0.6,1.7,1.6,1.7c0.8,0,1.3-0.4,1.6-0.9h0l0.1,0.8H125.5L125.5,62z M124.5,60c0,0.1,0,0.2-0.1,0.3c-0.2,0.5-0.6,1-1.3,1
		c-0.5,0-0.9-0.3-0.9-1c0-1.2,1.2-1.4,2.3-1.4V60L124.5,60z M133.2,56.1c-0.5-0.1-1.1-0.1-1.7-0.1c-0.7,0-1.3,0.1-1.8,0.4
		c-0.4,0.3-0.7,0.7-0.7,1.3c0,1.2,0.9,1.5,1.7,1.9l-2.1,2.5h1.1l2-2.4h0.5V62h1V56.1L133.2,56.1z M132.3,58.8c-0.2,0-0.4,0-0.8,0
		c-0.6,0-1.4-0.3-1.4-1c0-0.8,0.8-1,1.4-1c0.3,0,0.6,0,0.8,0.1V58.8L132.3,58.8z M141.1,56v0.9h1.7V62h1v-5.1h1.7V56H141.1L141.1,56
		z M153,59.2c0-0.1,0-0.3,0-0.5c0-1.1-0.5-2.8-2.2-2.8c-1.6,0-2.5,1.4-2.5,3.2c0,1.8,1,3,2.6,3c0.8,0,1.4-0.2,1.8-0.4l-0.2-0.8
		c-0.4,0.2-0.8,0.3-1.5,0.3c-1,0-1.8-0.6-1.8-2.1H153L153,59.2z M149.3,58.4c0.1-0.8,0.5-1.8,1.5-1.8c1.1,0,1.4,1.1,1.3,1.8H149.3
		L149.3,58.4z M155.9,56l1.8,2.9l-1.9,3.1h1.1l0.8-1.4c0.2-0.4,0.4-0.7,0.6-1h0c0.2,0.4,0.4,0.7,0.6,1l0.8,1.4h1.1l-1.9-3.1l1.8-2.9
		h-1l-0.8,1.3c-0.2,0.3-0.4,0.6-0.5,1h0c-0.2-0.3-0.3-0.6-0.5-1L157,56H155.9L155.9,56z M164,56v6h1v-2.7h2.5V62h1v-6h-1v2.4H165V56
		H164L164,56z M172.4,56v6h1.1c0.6-1.1,1.2-2.2,1.7-3.1c0.3-0.6,0.5-1.1,0.9-1.9h0c0,1-0.1,1.5-0.1,2.5V62h0.9v-6h-1.1l-1.7,3.1
		c-0.4,0.7-0.5,1.1-0.9,1.9l0,0c0-0.9,0.1-1.5,0.1-2.4V56H172.4L172.4,56z M180.8,56v6h1v-2.6h0.4l2,2.6h1l-2.4-3.1l2.3-2.9H184
		l-2,2.6h-0.2V56H180.8L180.8,56z M192.3,62c-0.1-0.4-0.1-0.9-0.1-1.4v-2.2c0-1.2-0.4-2.5-2-2.5c-0.7,0-1.3,0.2-1.8,0.5l0.2,0.7
		c0.4-0.3,0.9-0.4,1.4-0.4c1.1,0,1.2,0.9,1.2,1.4v0.1c-2.1,0-3.2,0.8-3.2,2.2c0,0.9,0.6,1.7,1.6,1.7c0.8,0,1.3-0.4,1.6-0.9h0
		l0.1,0.8H192.3L192.3,62z M191.3,60c0,0.1,0,0.2-0.1,0.3c-0.2,0.5-0.6,1-1.3,1c-0.5,0-0.9-0.3-0.9-1c0-1.2,1.2-1.4,2.3-1.4V60z"/>
	<g>
		<circle fill="#FFD50E" cx="33.1" cy="33" r="33"/>
		<path fill-rule="evenodd" clip-rule="evenodd" fill="#252626" d="M7.5,21.7c16.8-8.9,26.2,15,26.2,29.4l-0.4,8
			c9.4-0.8,12.7-14.6,10.8-24c-0.4-1.8-0.6-3.2-1.1-4.9c-0.5-1.7-1.3-3.2-1.4-4.9c10.9,0,19.7-3,12.6-12.6C51,8.3,42.4,4.6,36.5,4.6
			c-7.7,0-13.2,0.7-19.6,5.4C13.7,12.4,8.3,18.4,7.5,21.7z"/>
		<path fill-rule="evenodd" clip-rule="evenodd" fill="#252626" d="M10.3,42.7c0-7.2,4.7-4,6.1-1.7c4.2,7.1-1.3,11.7-4.7,5.9
			C10.9,45.8,10.3,44.5,10.3,42.7L10.3,42.7z M20.6,57.9c13,0,7.9-28.6-5.4-32.8c-3.7-1.2-6.3,0.5-7.8,3
			C1.3,38.6,11.8,57.9,20.6,57.9z"/>
	</g>
</g>
<radialGradient id="SVGID_1_" cx="73.6444" cy="-73.1429" r="22.9682" gradientTransform="matrix(0.7302 0.521 -0.5459 0.7652 -74.5001 31.7715)" gradientUnits="userSpaceOnUse">
	<stop  offset="0" style="stop-color:#FFFFFF;stop-opacity:0.3"/>
	<stop  offset="1" style="stop-color:#FFFFFF;stop-opacity:0"/>
</radialGradient>
<path fill-rule="evenodd" clip-rule="evenodd" fill="url(#SVGID_1_)" d="M30.9,30.4c-6.2,8.7-16.3,12.2-22.4,7.8s-6.1-15,0.1-23.8
	S24.8,2.2,31,6.6S37.1,21.7,30.9,30.4z"/>
</svg>
