<?xml version="1.0" encoding="UTF-8"?>
<svg xmlns="http://www.w3.org/2000/svg" version="1.1" viewBox="0 0 240.94 75.04">
  <defs>
    <style>
      .cls-1 {
        fill: #2c2d2c;
        stroke: #1a1a18;
        stroke-miterlimit: 22.93;
        stroke-width: .22px;
      }

      .cls-1, .cls-2, .cls-3 {
        fill-rule: evenodd;
      }

      .cls-2 {
        fill: #070200;
      }

      .cls-3 {
        fill: #ffe100;
      }
    </style>
  </defs>
  <!-- Generator: Adobe Illustrator 28.7.1, SVG Export Plug-In . SVG Version: 1.2.0 Build 142)  -->
  <g>
    <g id="_Слой_1" data-name="Слой_1">
      <path class="cls-2" d="M89.22,34.78c1.36,0,2.65-.2,3.87-.58,1.22-.39,2.34-.93,3.36-1.64,1.01-.7,1.9-1.54,2.65-2.51.75-.97,1.32-2.05,1.74-3.23.41-1.18.62-2.44.62-3.77,0-1.33-.21-2.59-.62-3.77-.41-1.18-.99-2.26-1.74-3.23-.75-.97-1.64-1.81-2.65-2.51-1.02-.71-2.14-1.25-3.36-1.64-1.22-.38-2.51-.57-3.87-.58-1.36,0-2.65.2-3.87.58-1.22.39-2.34.93-3.36,1.64-1.01.7-1.9,1.54-2.65,2.51-.75.97-1.32,2.05-1.74,3.23-.41,1.18-.62,2.44-.62,3.77,0,1.33.21,2.59.62,3.77.41,1.18.99,2.26,1.74,3.23.75.97,1.64,1.81,2.65,2.51,1.02.71,2.14,1.25,3.36,1.64,1.22.38,2.51.57,3.87.58h0ZM89.22,29.76c-.96,0-1.86-.16-2.69-.48-.83-.32-1.55-.77-2.18-1.36-.63-.59-1.12-1.29-1.46-2.12-.35-.82-.53-1.73-.53-2.74,0-1.01.19-1.93.53-2.74.35-.82.84-1.53,1.46-2.12.62-.59,1.35-1.04,2.18-1.36.83-.32,1.73-.48,2.69-.48.96,0,1.86.16,2.69.48.83.32,1.55.77,2.18,1.36.62.59,1.11,1.29,1.46,2.12.35.82.53,1.73.53,2.74,0,1.01-.18,1.93-.53,2.74-.35.82-.84,1.53-1.46,2.12-.63.59-1.35,1.04-2.18,1.36-.83.32-1.73.48-2.69.48h0ZM129.52,23.05c0-1.28-.26-2.45-.75-3.51-.5-1.05-1.21-1.98-2.13-2.78-.93-.79-2.04-1.45-3.34-1.96-1.3-.5-2.74-.85-4.34-1.04v-2.64h-5.25v2.64c-1.6.19-3.05.54-4.34,1.04-1.3.5-2.41,1.16-3.33,1.96-.93.79-1.64,1.72-2.14,2.78-.49,1.05-.75,2.22-.75,3.51,0,1.28.26,2.45.75,3.51.5,1.05,1.21,1.98,2.14,2.78.93.79,2.04,1.45,3.33,1.96,1.3.5,2.74.85,4.34,1.04v2.64h5.25v-2.64c1.6-.19,3.05-.54,4.34-1.04,1.3-.5,2.41-1.16,3.34-1.96.93-.79,1.63-1.72,2.13-2.78.49-1.05.75-2.22.75-3.51h0ZM108.53,23.05c0-1.29.43-2.31,1.28-3.07.86-.76,2.16-1.25,3.9-1.47v9.09c-1.74-.23-3.04-.72-3.9-1.48-.85-.76-1.28-1.78-1.28-3.07h0ZM118.96,27.6v-9.09c1.75.23,3.05.71,3.9,1.47.86.76,1.28,1.78,1.28,3.07,0,1.29-.42,2.31-1.28,3.07-.85.76-2.15,1.25-3.9,1.48h0ZM145.33,34.33h5.38V11.77h-4.04l-9.08,12.25v-12.25h-5.38v22.56h4.04l9.08-12.25v12.25h0ZM165.99,34.78c1.44,0,2.8-.22,4.08-.64,1.28-.42,2.43-1.03,3.45-1.8,1.03-.78,1.88-1.7,2.56-2.77l-4.64-2.58c-.34.58-.78,1.08-1.33,1.49-.55.41-1.17.73-1.87.95-.7.22-1.45.33-2.25.33-1.4-.01-2.61-.29-3.63-.84-1.03-.55-1.82-1.33-2.38-2.33-.56-1-.85-2.18-.85-3.53,0-1.35.29-2.52.85-3.53.56-1,1.35-1.78,2.38-2.33,1.03-.55,2.24-.83,3.63-.84.8,0,1.55.11,2.24.33.7.22,1.32.53,1.86.95.54.41.99.91,1.35,1.49l4.64-2.58c-.69-1.07-1.55-1.99-2.58-2.77-1.03-.78-2.18-1.38-3.45-1.8-1.27-.42-2.63-.64-4.06-.64-1.42,0-2.76.2-4,.58-1.24.39-2.37.93-3.38,1.64-1.01.7-1.87,1.54-2.6,2.51-.72.97-1.28,2.05-1.67,3.23-.39,1.18-.59,2.44-.59,3.77,0,1.33.2,2.59.59,3.77.39,1.18.95,2.26,1.67,3.23.73.97,1.59,1.81,2.6,2.51,1.01.71,2.14,1.25,3.38,1.64,1.24.38,2.57.57,4,.58h0ZM191.72,11.77v8.64h-7.4v-8.64h-5.38v22.56h5.38v-8.96h7.4v8.96h5.38V11.77h-5.38ZM216.11,34.33h5.89l-8.01-22.56h-6.86l-8.01,22.56h5.89l1.18-3.54h8.75l1.18,3.54h0ZM207.8,25.95l2.76-8.28,2.76,8.28h-5.52ZM241,11.77h-9.42c-1.13,0-2.18.21-3.15.61-.97.4-1.83.95-2.56,1.65-.74.7-1.31,1.53-1.73,2.45-.41.93-.63,1.94-.63,3.02,0,.98.21,1.92.62,2.8.4.88.97,1.67,1.69,2.35.73.68,1.57,1.22,2.53,1.62l-5.52,8.06h6.05l5.01-7.41h1.72v7.41h5.38V11.77h0ZM231.58,22.41c-.5,0-.95-.13-1.36-.39-.4-.25-.72-.6-.96-1.03-.24-.44-.36-.93-.37-1.48,0-.55.13-1.05.37-1.48.24-.44.56-.78.96-1.03.4-.25.86-.38,1.36-.39h4.04v5.8h-4.04Z"/>
      <path class="cls-2" d="M103.94,40.82h-18.38v5.22h6.36v18.49h5.66v-18.49h6.36v-5.22h0ZM112.08,59.31v-4.2h8.84v-5.15h-8.84v-3.93h9.72v-5.22h-15.38v23.71h15.56v-5.22h-9.9ZM144.6,64.53l-7.39-12.16,7.04-11.55h-6.43l-3.82,6.27-3.82-6.27h-6.43l7.04,11.55-7.39,12.16h6.43l4.17-6.84,4.17,6.84h6.43ZM160.51,40.82v9.08h-7.78v-9.08h-5.66v23.71h5.66v-9.42h7.78v9.42h5.66v-23.71h-5.66ZM184.2,64.53h5.66v-23.71h-4.24l-9.55,12.87v-12.87h-5.66v23.71h4.24l9.55-12.87v12.87h0ZM214.11,64.53l-8.7-12.16,8.34-11.55h-6.43l-7.57,10.3v-10.3h-5.66v23.71h5.66v-10.97l7.92,10.97h6.43ZM231.97,64.53l-1.24-3.73h-9.19l-1.24,3.73h-6.19l8.41-23.71h7.21l8.41,23.71h-6.19ZM223.23,55.72h5.8l-2.9-8.7-2.9,8.7Z"/>
      <path class="cls-3" d="M32.74,69.57c17.78,0,32.29-14.5,32.29-32.29S50.52,5,32.74,5,.45,19.5.45,37.29s14.5,32.29,32.29,32.29Z"/>
      <path class="cls-1" d="M15.08,14.19c6.27-4.69,11.67-5.35,19.24-5.35,5.8,0,14.18,3.65,17.41,7.96,7.02,9.38-1.62,12.33-12.33,12.33.14,1.69.92,3.16,1.4,4.84.48,1.68.7,3.05,1.05,4.81,1.84,9.24-1.4,22.76-10.65,23.53l.39-7.81c0-14.17-9.23-37.63-25.76-28.88.75-3.2,6.08-9.06,9.25-11.43ZM8.6,45.95c0,1.68.62,2.98,1.32,4.15,3.37,5.66,8.81,1.18,4.64-5.81-1.38-2.31-5.95-5.44-5.95,1.66h0ZM5.87,31.51c1.46-2.49,3.96-4.13,7.62-2.95,13.01,4.19,18.03,32.22,5.26,32.22C10.06,60.78-.2,41.85,5.87,31.51Z"/>
    </g>
  </g>
</svg>